v -2.71129 -2.24802 3.66133
v -3.01201 -2.24383 3.07427
v -2.80587 -2.09661 3.32431
v -3.16273 -2.45023 3.81183
v -3.47698 -2.34308 3.34114
v -2.69431 -1.79799 3.23732
v -2.53088 -2.44648 4.09745
v -2.88564 -2.67127 4.19211
v -3.44805 -2.16113 4.17595
v -3.63381 -2.00674 3.71416
v -3.84154 -2.42685 2.99272
v -3.41716 -2.29302 2.63497
v -2.74365 -2.01495 2.61691
v -2.14035 -1.66734 2.84469
v -3.21477 -1.67198 3.57522
v -3.05545 -1.97729 3.98616
v -2.88534 -2.211 4.43391
v -2.24812 -2.59951 4.48018
v -2.60147 -2.88053 4.5916
v -3.04637 -2.35193 4.47587
v -3.73884 -2.15028 3.85446
v -3.82513 -2.63563 3.6377
v -4.3747 -2.43253 3.49808
v -4.13691 -2.36723 2.6228
v -3.8017 -2.25087 2.22938
v -3.07325 -2.37182 2.30572
v -2.48002 -1.93975 2.19576
v -2.2375 -1.4914 2.39762
v -1.84269 -1.90341 3.2197
v -2.12587 -1.87905 3.535
v -2.3875 -1.27677 3.27406
v -3.08125 -1.32602 3.22218
v -2.68694 -2.5383 4.85775
v -1.97096 -2.75126 4.88705
v -2.30846 -3.13948 4.96447
v -3.64612 -1.33996 3.13409
v -3.95801 -1.67131 3.4932
v -4.20612 -1.95396 3.84552
v -4.01101 -2.46274 4.27807
v -4.12239 -2.862 4.04283
v -4.57097 -2.62327 4.01607
v -4.39218 -2.37386 3.00937
v -4.43065 -2.07489 2.41531
v -4.1198 -1.90613 2.01984
v -3.42012 -2.06955 1.95154
v -2.73681 -2.35257 1.96299
v -2.43315 -1.2328 1.99749
v -2.55241 -1.6651 1.74709
v -2.36347 -1.0365 2.6721
v -1.87722 -1.73313 3.08076
v -1.50327 -2.15698 3.55682
v -1.76312 -2.02266 3.87425
v -2.12287 -1.46249 3.69869
v -2.93759 -0.957567 2.83589
v -3.31405 -1.44599 3.31049
v -2.87288 -2.36707 4.58918
v -2.37409 -2.72366 5.25635
v -1.70464 -3.03226 5.25784
v -1.91864 -3.25221 5.32433
v -4.11912 -1.55834 3.18289
v -4.39447 -2.24037 4.27305
v -4.5094 -1.60878 3.24835
v -4.33024 -3.06448 4.50628
v -4.15729 -2.7058 4.73697
v -4.53792 -2.65606 4.68178
v -4.62069 -2.47662 3.42203
v -4.31107 -1.83707 3.13457
v -4.75015 -2.26819 2.76796
v -4.10476 -1.45201 2.2153
v -4.43634 -1.58772 2.59094
v -3.78083 -1.72585 1.65374
v -3.0619 -2.16452 1.92843
v -2.91285 -1.99593 1.63074
v -2.52482 -0.794675 2.25454
v -2.71435 -1.36467 1.35859
v -2.54425 -0.953943 1.58463
v -1.83511 -1.32299 3.46015
v -1.64861 -1.62864 3.17788
v -1.14867 -2.24438 3.95257
v -1.48008 -2.15016 4.27214
v -1.71869 -1.60488 4.00539
v -1.30495 -1.73483 3.58051
v -2.11516 -1.35408 3.47764
v -3.01791 -0.70526 2.37245
v -3.43391 -0.99591 2.74991
v -2.00021 -2.95098 5.62616
v -1.54537 -3.3319 5.79314
v -2.02935 -3.07965 5.39289
v -4.171 -1.3346 2.90423
v -4.31986 -2.60561 4.63904
v -4.25949 -1.70572 3.29204
v -4.52182 -2.05414 3.38517
v -4.49858 -2.96307 5.22531
v -4.50112 -2.50656 4.32363
v -5.05916 -2.35994 3.15762
v -4.78351 -1.75197 2.96752
v -3.86402 -1.24139 1.8131
v -3.86157 -1.11737 2.5365
v -3.3381 -1.62528 1.39775
v -3.16649 -2.03274 1.79114
v -2.94352 -1.67336 1.15016
v -2.63877 -0.519421 1.84139
v -2.68346 -1.08543 0.950647
v -2.64399 -0.656535 1.19861
v -1.52017 -1.52117 3.86067
v -1.05809 -1.8908 4.04081
v -0.850616 -2.43833 4.34479
v -1.16302 -2.33308 4.61771
v -1.36357 -1.68462 4.38744
v -3.06237 -0.384561 1.94155
v -3.31941 -0.813187 2.25822
v -4.79322 -1.91571 3.62283
v -5.02767 -2.63101 3.79914
v -5.37296 -2.52731 3.51595
v -5.04169 -1.93981 3.39791
v -3.52859 -0.966232 1.4477
v -3.62091 -0.921114 2.14399
v -2.96412 -1.24647 0.84743
v -2.96214 -0.147555 1.4186
v -2.91034 -0.825525 0.508908
v -2.65517 -0.406539 0.968533
v -0.788992 -2.00907 4.50556
v -0.816559 -2.48594 5.00373
v -0.638878 -2.61227 4.82149
v -1.05864 -1.90436 4.7695
v -1.53414 -1.60356 4.0845
v -2.88776 -0.350512 1.73385
v -3.31024 -0.679607 2.09974
v -5.19369 -2.12188 3.95474
v -5.42167 -2.81704 4.09726
v -5.71241 -2.73601 3.84097
v -3.53061 -0.573912 1.78249
v -3.41695 -1.26845 1.30658
v -3.38415 -1.21383 1.0743
v -2.85264 -1.05247 0.768995
v -2.75377 -0.403543 1.19525
v -2.77716 -0.0219196 0.650188
v -2.92408 -0.36553 0.247534
v -0.566147 -2.23135 4.96826
v -1.01274 -2.24112 4.79698
v -0.47744 -2.59746 5.38268
v -5.00953 -1.99247 3.65849
v -5.52515 -2.38908 4.30009
v -5.7605 -2.97687 4.46505
v -6.07918 -2.9155 4.1992
v -3.56567 -0.276743 1.37324
v -3.67226 -0.606028 1.05422
v -3.48371 -0.830959 0.697214
v -3.04032 0.187109 0.994466
v -3.43758 -0.371619 0.405758
v -2.98302 0.0555657 -0.0791846
v -2.96268 0.367479 0.340208
v -0.741554 -2.24563 4.92595
v -5.85571 -2.71918 4.60227
v -6.25585 -3.11685 4.71535
v -5.88566 -2.77532 4.33158
v -3.70459 -0.185126 0.684241
v -3.53584 0.0860796 0.981925
v -3.14607 0.569935 0.671244
v -3.48798 0.0432543 0.0399843
v -3.07266 0.488797 -0.380071
v -2.98499 0.788389 0.0319052
v -3.51827 0.455791 0.598042
v -3.79998 0.240093 0.369568
v -3.19323 1.05199 0.49685
v -3.63513 0.459303 -0.265574
v -3.02957 1.16311 -0.275327
v -3.2785 0.867917 -0.746011
v -3.70281 0.936607 0.453846
v -3.86301 0.641939 0.0395767
v -3.21674 1.56395 0.329173
v -3.8068 0.837587 -0.601574
v -3.12359 1.15936 -0.51483
v -3.73943 1.39811 0.219498
v -3.98021 1.09398 -0.184794
v -3.0627 1.44704 -0.523152
v -3.00761 1.81231 -0.147106
v -3.91355 1.28984 -0.840767
v -3.48521 1.25606 -1.09219
v -3.86 1.85918 0.0212092
v -4.06816 1.55409 -0.38144
v -3.44962 2.13162 0.276979
v -2.33416 1.63152 -0.6995
v -2.51478 1.95622 -0.292643
v -3.0194 2.29137 0.045601
v -4.01442 1.72445 -1.06735
v -3.64379 1.62318 -1.37336
v -3.08972 1.68122 -0.959466
v -4.08347 2.29015 -0.181485
v -4.16859 2.00172 -0.597403
v -3.67301 2.55489 -0.0287841
v -2.51794 1.72584 -1.14388
v -2.27154 2.19578 -0.223992
v -2.0176 1.50674 -0.321209
v -3.2113 2.71011 -0.174923
v -4.1006 2.25663 -1.16406
v -3.70725 2.04709 -1.4566
v -3.17969 1.74712 -1.45254
v -3.99131 2.45304 -0.427369
v -2.02301 1.5871 -1.33085
v -1.9883 1.26877 -0.992451
v -2.68816 1.77255 -1.61693
v -1.81954 1.06742 -0.576786
v -1.6131 2.03155 0.0328096
v -1.59265 1.48182 -0.0335244
v -2.75761 2.80269 -0.458758
v -3.4295 2.92712 -0.609949
v -3.88534 2.77025 -0.449433
v -4.14613 2.64821 -0.879743
v -3.83689 2.26001 -1.33299
v -3.28162 2.06391 -1.73188
v -2.20241 1.75866 -1.7804
v -1.69433 1.29837 -1.62011
v -1.67179 0.954952 -1.26991
v -2.79179 2.10635 -1.92315
v -1.49341 0.992406 -0.206745
v -1.56563 0.698555 -0.859616
v -1.49074 2.53775 0.00639493
v -1.99288 2.66284 -0.375003
v -1.11113 1.46958 0.195602
v -1.23559 1.97811 0.41779
v -2.28971 2.94346 -0.700146
v -2.96175 3.00566 -0.842238
v -3.61813 2.83937 -1.08359
v -3.70283 2.4763 -1.37831
v -3.25086 2.54221 -1.59967
v -2.29188 2.15797 -2.0654
v -1.77472 1.68345 -1.95788
v -1.41453 0.988986 -1.95219
v -1.34341 0.690507 -1.55203
v -2.76826 2.57416 -1.79868
v -1.34777 0.524328 -0.426316
v -1.05464 0.956494 0.0108204
v -1.28839 0.403793 -1.12648
v -1.45905 2.51492 0.574696
v -1.39657 3.03572 -0.00501977
v -1.66606 3.08733 -0.45755
v -0.614113 1.67137 0.349874
v -0.765712 1.92986 0.773381
v -2.49263 3.01807 -1.09753
v -1.90249 3.21059 -0.899524
v -3.13951 2.88557 -1.28333
v -2.31645 2.66845 -2.05697
v -1.79811 2.22516 -2.20601
v -1.45579 1.38169 -2.2101
v -1.0239 0.424477 -1.82656
v -1.03759 0.744921 -2.21375
v -2.66469 2.91089 -1.50823
v -1.18882 0.102192 -0.681445
v -1.02131 0.417799 -0.0594539
v -0.548794 0.942245 0.0840859
v -0.589608 1.42318 0.246343
v -1.04425 0.11512 -1.40875
v -0.961374 2.12781 0.304296
v -1.33088 2.13077 0.63815
v -1.47329 3.10433 0.507759
v -1.23294 3.49162 -0.043197
v -1.36658 3.46692 -0.551552
v -0.771617 1.52138 0.26394
v -0.115889 1.84854 0.530626
v -0.222978 2.1519 0.979055
v -0.988125 2.42548 1.06099
v -2.09423 3.25493 -1.36952
v -1.52938 3.47319 -1.04968
v -2.26859 3.13885 -1.84012
v -1.83021 2.70483 -2.18549
v -1.33975 2.26553 -2.4315
v -1.34684 1.79144 -2.32304
v -0.975276 1.15718 -2.48766
v -1.52578 1.61886 -2.16367
v -0.640281 0.52217 -2.35552
v -0.654773 0.151453 -2.02481
v -1.04628 -0.218365 -0.974279
v -1.12716 0.170826 -0.309417
v -0.491258 0.380037 0.0653983
v -0.048296 0.927162 0.134593
v -0.0753886 1.37363 0.350007
v -0.596344 0.0510146 -1.50801
v -0.977328 2.41301 0.663138
v -0.809551 2.28725 0.672903
v -1.06628 2.62081 0.981489
v -1.21785 3.12603 1.04609
v -1.29303 3.65555 0.485292
v -0.907338 3.83447 -0.108968
v -0.954259 3.69559 -0.635224
v 0.276591 2.3838 1.01483
v 0.39024 1.94069 0.639488
v -0.578471 2.27774 1.00681
v -1.71185 3.45561 -1.54368
v -1.083 3.66505 -1.15105
v -1.81992 3.12602 -1.90544
v -1.29695 2.71766 -2.25147
v -0.855926 2.30043 -2.59648
v -0.924679 1.65579 -2.65443
v -0.523901 0.948578 -2.61667
v -0.113922 0.487614 -2.25348
v -0.0882467 0.147089 -1.94638
v -0.52229 -0.236584 -1.09402
v -0.9735 -0.552956 -0.582603
v -1.08891 -0.0293323 -0.353771
v -0.988999 -0.160857 -0.0260973
v -0.38826 -0.202455 0.0199903
v -0.040169 0.501233 -0.140032
v 0.455618 0.952456 0.0980361
v 0.427977 1.47801 0.287179
v -0.127193 0.100736 -1.49314
v -0.538854 2.36704 0.878873
v -0.847359 2.84657 1.2024
v -1.07746 3.56105 1.05298
v -0.843718 3.92639 0.41179
v -0.471029 3.9163 -0.152903
v -0.469408 3.8319 -0.693105
v 1.04105 1.95432 0.74718
v 0.878957 2.40864 1.07368
v -0.379506 2.34445 1.06655
v -0.536033 2.537 1.15405
v -1.20807 3.48923 -1.65007
v -0.607067 3.87429 -1.2539
v -1.33459 3.13777 -2.00936
v -0.823978 2.7951 -2.42484
v -0.400176 2.35985 -2.76445
v -0.417407 1.89997 -2.83311
v -0.411156 1.4561 -2.77332
v -0.0593541 0.827367 -2.62656
v 0.609132 0.481989 -2.3242
v 0.548755 0.0940002 -2.01103
v -0.566067 -0.683435 -0.693889
v -0.0594404 0.175728 -0.962778
v -0.861669 -0.719706 -0.115081
v -0.495466 -0.705457 -0.10287
v -0.237365 0.105355 -0.23732
v 0.44031 0.423873 0.0705172
v 0.962657 0.96131 0.0307583
v 0.938748 1.61687 0.322917
v 0.504513 0.0312117 -1.47735
v -0.590382 2.51425 0.782308
v 0.0189416 2.24103 0.439873
v -0.76362 2.60801 1.48362
v -0.592496 3.15838 1.2945
v -0.653015 3.98134 0.808096
v -1.03446 3.32924 0.924572
v -0.541611 3.92131 0.339783
v -0.0439072 3.96704 -0.0830947
v -0.0280792 4.11528 -0.615027
v 0.869599 2.08291 0.249604
v 0.46767 2.26356 0.833761
v 0.541073 2.352 0.97409
v -0.692859 3.73517 -1.8424
v -0.244843 4.00524 -0.995675
v -0.761793 3.26604 -2.17226
v -0.353564 2.85898 -2.54972
v -0.093067 2.18291 -2.86406
v -0.584414 1.67062 -2.75362
v 0.0821661 1.27303 -2.98598
v 0.646854 0.880451 -2.57855
v 1.08272 0.635316 -2.01044
v 1.06781 0.475601 -1.84077
v -0.447828 -0.421562 -0.800012
v -0.0120098 0.192627 -0.519831
v -0.255127 -0.344668 -0.612123
v 0.510664 -0.277627 -1.0747
v 0.394646 -0.0544527 0.0427236
v 0.980124 0.423093 -0.0455146
v 1.21051 1.36979 0.0825887
v 1.03643 0.125218 -1.41662
v -0.596547 2.71963 1.20629
v -0.630977 2.14902 0.284819
v -0.808077 3.30065 0.674651
v -0.611799 3.23308 0.734924
v -0.761565 3.72102 1.0175
v -0.679448 3.94301 0.51989
v -0.0561118 3.80795 0.170197
v 0.407714 3.8983 -0.0296626
v 0.418664 3.84213 -0.586431
v 1.32673 1.88249 0.237401
v 1.36964 2.40097 0.610327
v 0.679475 2.3845 0.481585
v 0.321826 1.97915 0.0189559
v -0.0704128 4.09805 -1.40588
v 0.00758471 3.95695 -2.01698
v -0.427909 3.33387 -2.26001
v 0.178453 2.89628 -2.60169
v -0.0448987 2.43258 -2.97321
v 0.171006 1.85116 -2.92852
v 0.680198 1.26606 -2.63412
v 1.16854 1.12596 -2.30276
v 1.18252 0.639546 -1.80759
v 0.0508291 0.0386344 -0.653593
v 1.02694 -0.234925 -0.987702
v 0.478754 -0.667473 -0.652219
v 0.223937 -0.252452 -0.478169
v 0.357962 -0.538775 0.0435429
v 0.951074 -0.118301 0.0172761
v 1.33387 0.506305 -0.425693
v 1.41141 0.948852 -0.163794
v 1.39702 0.807721 -1.57156
v 1.29197 0.439068 -1.14004
v -0.31887 2.57716 1.04108
v -0.372573 3.28368 1.06538
v -0.554225 3.62068 1.19144
v -0.0715432 3.02627 1.10069
v -0.110286 2.67255 1.19604
v -0.0341098 3.79942 0.694785
v 0.102565 3.8911 0.0191466
v 0.89655 3.84624 -0.107159
v 0.926249 3.71186 -0.632248
v 0.482852 3.87452 -0.964424
v -0.049246 4.10666 -1.01046
v 1.4113 2.18706 0.327164
v 0.493679 2.54049 0.859678
v 0.910357 2.61814 1.18404
v -0.62752 3.44503 -2.09155
v 0.0676261 4.01323 -1.59911
v 0.131585 3.47826 -2.44032
v 0.119898 2.56661 -2.79863
v 0.22614 2.37097 -2.821
v 0.75583 1.74036 -2.79469
v 0.831863 1.09082 -2.50514
v 1.51521 1.21365 -1.93896
v 1.1859 0.120003 -0.704151
v 0.947744 -0.600986 -0.583297
v 0.478231 -0.596995 -0.265378
v 0.753533 -0.607165 -0.0685759
v 1.10389 0.18639 -0.300304
v 1.57214 0.727715 -0.836163
v 1.76613 1.07215 -0.484824
v 1.41302 1.43944 -0.0143391
v 1.7641 1.01496 -1.19975
v -0.0333207 2.52024 0.791668
v -0.263816 2.4591 1.22907
v -0.32355 2.6171 1.21047
v 0.14982 3.01879 1.15237
v -0.0328002 3.37999 1.00534
v 0.208482 3.87245 0.399476
v 0.377543 3.91829 0.377467
v 0.863 3.9397 0.384745
v 1.2682 3.4458 -0.0791389
v 1.38483 3.46458 -0.579048
v 0.609255 3.8095 -0.727701
v 0.246145 3.98705 -1.21965
v 1.53752 2.27773 0.133764
v 1.15148 3.21588 1.08214
v 1.49589 3.01364 0.4958
v 0.4546 2.78184 1.17082
v 0.397074 2.51046 1.19201
v 0.265706 3.98469 -1.37446
v 0.698152 3.31796 -2.16527
v 0.695304 3.7364 -1.82443
v 0.706592 2.82993 -2.46206
v 0.729267 2.29173 -2.66088
v 1.19458 1.69569 -2.41992
v 1.62238 1.70531 -2.11625
v 1.84024 1.43443 -1.49685
v 1.06849 0.000851169 -0.343437
v 0.576967 -0.91911 -0.171468
v 2.05154 1.27519 -0.827612
v 1.87282 1.50021 -0.16415
v 1.94748 2.00812 -0.134633
v 0.347373 3.93829 0.784596
v 0.359954 3.56756 1.2127
v 0.818283 3.93463 0.868717
v 1.33748 3.61744 0.372974
v 1.52092 2.78709 -0.0865187
v 1.75572 3.07465 -0.540354
v 1.51637 3.48545 -1.08769
v 1.05282 3.68063 -1.18986
v 0.601825 3.87133 -1.34305
v 0.50913 3.23329 1.28895
v 1.26502 3.72175 0.821056
v 0.247129 2.65495 1.18629
v 1.1616 3.50986 -1.66939
v 1.20533 3.18071 -2.02289
v 1.20281 2.73881 -2.26958
v 1.23036 2.24529 -2.48786
v 2.00656 1.76914 -1.82335
v 1.67359 2.21872 -2.22978
v 2.19944 1.58986 -1.15582
v 2.27252 1.6114 -0.517542
v 1.74444 1.64926 -0.104374
v 2.07562 2.48473 -0.263458
v 0.278761 3.39361 1.169
v 0.796368 3.61442 1.15267
v 2.20972 2.81308 -0.529326
v 1.93347 3.24501 -1.00435
v 1.66051 3.42658 -1.5748
v 0.602513 3.34903 0.74107
v 1.71716 3.08907 -1.92044
v 1.7206 2.70323 -2.20271
v 2.14297 2.19668 -2.11037
v 2.45076 1.73439 -1.62872
v 2.63128 1.73565 -0.87462
v 2.45374 1.95096 -0.291572
v 2.544 2.37121 -0.19035
v 2.70814 2.72599 -0.384921
v 2.38108 3.00843 -0.903251
v 2.13139 3.30836 -1.5082
v 2.21733 3.08998 -1.97691
v 2.21473 2.73359 -2.15198
v 2.62456 2.14182 -1.9832
v 2.86739 1.77853 -1.41539
v 2.45251 1.766 -0.561245
v 3.00464 2.24344 0.0188963
v 2.9893 1.81936 -0.169668
v 3.18916 2.66811 -0.146553
v 2.87717 2.99704 -0.710403
v 2.52407 2.97775 -1.34344
v 2.6408 2.71156 -1.78912
v 2.35762 2.84504 -1.97267
v 3.08263 2.07401 -1.80832
v 3.26566 1.67424 -1.2514
v 3.0831 1.51596 -0.644116
v 3.4063 2.10756 0.314453
v 3.1651 1.53314 0.348113
v 3.67782 2.51667 -0.0269762
v 3.37489 2.92659 -0.550973
v 3.02812 2.93768 -1.1957
v 3.12131 2.62612 -1.62487
v 3.48975 1.9929 -1.58182
v 3.48803 1.10589 -0.94496
v 3.6698 1.47754 -1.2105
v 3.01329 1.11523 -0.224117
v 3.68251 1.33999 0.280581
v 3.82938 1.80412 0.0740805
v 4.08854 2.21225 -0.188517
v 3.8584 2.78893 -0.461398
v 3.51561 2.87539 -1.06244
v 3.57383 2.51435 -1.42689
v 3.89272 1.90861 -1.31581
v 3.2319 0.747673 -0.635832
v 3.96308 1.57098 -0.958953
v 3.91425 1.19161 -0.694743
v 3.19829 0.988716 0.517968
v 2.97906 0.715297 0.112132
v 3.62844 0.865646 0.489296
v 4.06856 1.4688 -0.284439
v 3.91342 1.06319 -0.0392206
v 4.12846 1.86513 -0.572402
v 4.1822 2.54443 -0.592379
v 3.98884 2.77409 -0.961642
v 4.01627 2.40482 -1.25174
v 3.84187 1.65237 -1.16175
v 3.87517 0.776928 -0.436478
v 3.011 0.39872 -0.275998
v 2.91161 0.304454 0.432091
v 3.13336 0.493929 0.734405
v 3.52081 0.387616 0.673234
v 3.81469 0.654503 0.228363
v 4.20553 2.15691 -0.945077
v 4.00981 2.70248 -0.671806
v 4.03817 2.15678 -1.17088
v 3.84576 0.388647 -0.092779
v 3.46526 0.333715 -0.256355
v 2.98066 -0.0391637 0.0326764
v 3.23605 0.493369 -0.389395
v 3.04363 0.109925 1.05238
v 2.73321 -0.0970839 0.755075
v 3.55422 0.00228326 1.04437
v 3.73459 0.1049 0.372529
v 3.37889 -0.065239 0.0965085
v 2.84006 -0.458365 0.34809
v 2.65166 -0.483955 1.11147
v 2.95793 -0.161888 1.46743
v 3.72089 -0.417142 0.609443
v 3.50217 -0.30701 1.46218
v 3.79834 0.382683 0.169371
v 3.26876 -0.451237 0.49494
v 2.79018 -0.832967 0.733674
v 2.60126 -0.829181 1.51803
v 2.66174 -0.439883 1.84759
v 3.60655 -0.615973 1.17978
v 3.5473 -0.634427 1.92046
v 3.06603 -0.445021 2.03706
v 3.60304 -0.904006 0.886768
v 3.23123 -0.977167 0.613587
v 2.68466 -1.18863 1.13018
v 2.58397 -0.762402 2.23883
v 2.43528 -1.12202 1.94226
v 2.89524 -0.348931 1.78403
v 3.63033 -1.01673 1.54792
v 3.64349 -0.645707 0.891997
v 3.41961 -1.00724 2.76279
v 3.748 -1.06478 2.32386
v 3.43606 -1.27843 1.23405
v 3.06487 -1.37023 0.919705
v 2.58686 -1.21847 1.54633
v 3.01338 -0.751951 2.48353
v 2.23923 -1.36462 2.34055
v 2.39579 -1.01695 2.60959
v 3.95903 -1.36821 1.94751
v 3.16634 -0.734737 2.42779
v 4.11377 -1.2609 2.71318
v 3.76147 -1.33581 3.07385
v 3.457 -1.69862 1.51295
v 2.95227 -1.70807 1.20539
v 2.63259 -1.38037 1.42378
v 2.71959 -1.00277 2.87313
v 2.58053 -1.57212 1.71738
v 2.03383 -1.49365 2.7957
v 2.15544 -1.17598 3.03447
v 2.43047 -1.86445 2.1752
v 3.89181 -1.85975 1.76475
v 4.27096 -1.59873 2.33842
v 3.5078 -1.33126 1.43164
v 3.05732 -1.20011 3.09565
v 3.38477 -1.49947 3.35934
v 4.04408 -1.65835 3.4099
v 4.44052 -1.5033 3.09705
v 3.32454 -2.08205 1.9694
v 2.86446 -1.97059 1.62633
v 2.42361 -1.06524 2.83906
v 2.68585 -1.9348 2.66123
v 1.81991 -1.33941 3.39767
v 1.6834 -1.63292 3.1414
v 2.70231 -2.32282 1.98435
v 4.16366 -2.07623 2.18105
v 3.55778 -1.88014 1.74903
v 4.61783 -1.75892 2.7219
v 2.61707 -1.34303 3.38916
v 3.06118 -1.75441 3.61621
v 3.66868 -1.87247 3.61954
v 4.3563 -1.82845 3.46685
v 3.02089 -2.33726 2.38098
v 2.34469 -1.73 2.79477
v 2.14223 -1.4376 3.68831
v 2.3144 -1.76154 2.92739
v 1.93396 -1.9483 3.22626
v 1.36373 -1.83039 3.51543
v 1.41577 -1.50718 3.7237
v 3.77921 -2.28233 2.42176
v 4.5278 -2.23923 2.56773
v 4.70592 -1.7629 3.46087
v 4.93529 -1.94165 3.1088
v 2.56104 -1.75146 3.2611
v 2.87194 -2.16945 3.20282
v 3.49034 -1.98049 3.87917
v 3.82176 -2.145 3.93731
v 4.29941 -2.00511 3.83653
v 3.36771 -2.2828 2.78291
v 1.76634 -1.6093 3.99171
v 2.18246 -1.86715 3.54689
v 1.69985 -2.1341 3.68025
v 1.2929 -2.22488 4.01932
v 1.13399 -1.79943 4.0985
v 4.14638 -2.38975 2.90085
v 4.89148 -2.39629 2.93863
v 4.97893 -2.01132 3.82922
v 5.24262 -2.12226 3.50645
v 2.66953 -2.35152 3.72036
v 2.88717 -2.05062 4.0123
v 3.37243 -2.3373 3.52757
v 3.37407 -2.19628 4.29088
v 4.43213 -2.3086 4.30494
v 4.05387 -2.46926 4.33567
v 4.29155 -2.21259 3.52989
v 3.69754 -2.46209 3.20401
v 1.42399 -1.72216 4.37431
v 1.93876 -1.98318 3.48447
v 1.45216 -2.06312 3.73834
v 1.01 -2.42896 4.42276
v 0.79343 -1.97088 4.506
v 4.42818 -2.33159 3.03207
v 5.16436 -2.48995 3.36219
v 5.30534 -2.26026 4.15749
v 5.53733 -2.33822 3.85217
v 3.11199 -2.48799 3.92186
v 2.50312 -2.54248 4.17258
v 2.71792 -2.2507 4.45907
v 3.87918 -2.68838 3.66014
v 2.99453 -2.37692 4.57254
v 4.59706 -2.49965 3.51688
v 4.54168 -2.72522 4.02868
v 4.07394 -2.87342 4.10959
v 4.32721 -2.61828 4.69111
v 4.39601 -2.23911 3.62777
v 4.28369 -2.42006 3.22326
v 1.02879 -1.9453 4.55207
v 1.13507 -1.98507 4.76266
v 0.657463 -2.24897 5.0189
v 5.47979 -2.72245 3.66323
v 4.84176 -2.56408 3.6493
v 5.19079 -2.68669 3.98935
v 5.58567 -2.55712 4.48233
v 5.84027 -2.52086 4.21573
v 2.85875 -2.70278 4.29559
v 2.64667 -2.57992 4.92783
v 2.21092 -2.63356 4.57095
v 2.78638 -2.40252 4.65315
v 4.47105 -2.62193 4.77635
v 4.39044 -3.06174 4.53721
v 4.1694 -2.72756 4.793
v 5.80343 -2.88609 3.97761
v 5.52174 -2.76742 4.36975
v 5.74799 -2.71769 4.47015
v 2.54915 -2.92831 4.65201
v 1.96089 -2.77867 4.95629
v 2.34964 -2.78188 5.324
v 4.50962 -2.96406 5.24561
v 4.4594 -3.33741 4.97477
v 4.33535 -2.88679 4.22516
v 4.42025 -3.12156 5.00498
v 5.96385 -2.80032 4.6177
v 6.09476 -3.05818 4.28999
v 2.22961 -3.15864 5.00531
v 2.00804 -3.04817 5.66987
v 1.67266 -2.92573 5.29968
v 4.51381 -3.27284 5.23157
v 5.88051 -2.956 4.41653
v 5.82841 -2.94272 4.66524
v 6.15421 -3.12557 4.78004
v 1.83469 -3.28884 5.33181
v 1.99841 -3.12128 5.42202
v 1.57005 -3.32886 5.7791
v 4.5724 -3.51704 5.47432
v -4.48122 -3.31247 4.94799
v -4.53017 -3.25562 5.22426
v -4.53017 -3.25562 5.22426
v -4.6107 -3.49132 5.49948
v 0.431715 -2.62714 5.358
v 0.606199 -2.48695 5.07982
v 0.606199 -2.48695 5.07982
v 0.72942 -2.58475 4.86255
vn 0.80564 -0.422061 -0.415704
vn 0.211296 -0.953542 -0.214734
vn 0.80564 -0.422061 -0.415704
vn 0.80564 -0.422061 -0.415704
vn 0.247288 -0.798098 -0.549444
vn -0.687518 -0.703749 0.179045
vn 0.219145 -0.974204 -0.0538702
vn 0.562222 -0.797336 0.21946
vn 0.628322 0.620081 0.469799
vn 0.649857 0.751952 0.110702
vn 0.349131 -0.727057 -0.591181
vn -0.653878 -0.725602 0.21435
vn -0.301954 0.789367 0.534531
vn 0.77751 -0.320539 0.541048
vn 0.00868963 -0.960355 -0.278644
vn 0.105109 -0.970315 -0.217812
vn 0.401154 -0.911216 0.0936011
vn 0.671116 -0.737441 -0.0760541
vn -0.0969993 -0.946688 -0.307203
vn 0.230556 0.174161 0.957346
vn -0.163869 0.798702 0.578984
vn 0.500357 0.838406 0.216142
vn 0.434778 -0.623943 -0.649356
vn -0.753959 -0.563354 0.337904
vn -0.0983695 0.662209 0.742834
vn 0.23447 0.657731 0.71583
vn 0.861251 -0.367831 0.350637
vn -0.267446 -0.818931 -0.507764
vn -0.093081 -0.990609 -0.100151
vn -0.374447 -0.730858 -0.570645
vn -0.121659 -0.94074 -0.316554
vn 0.589939 -0.71698 0.371365
vn 0.903128 -0.174421 -0.392347
vn 0.93438 0.345439 0.0872114
vn 0.518987 -0.47476 -0.710814
vn -0.403691 -0.907316 -0.11752
vn -0.619128 0.0862584 0.780538
vn 0.0473521 0.858046 0.511384
vn -0.122633 0.731628 0.670583
vn -0.382159 0.636229 0.6702
vn -0.382159 0.636229 0.6702
vn 0.273157 0.942019 0.194899
vn 0.445742 -0.557303 -0.700519
vn -0.811647 -0.440463 0.383694
vn -0.382159 0.636229 0.6702
vn -0.122633 0.731628 0.670583
vn -0.31383 0.737616 0.597857
vn 0.321698 0.682599 0.656178
vn -0.673075 0.27772 0.68545
vn 0.895951 -0.421143 0.141104
vn -0.699002 -0.682022 -0.215041
vn -0.884863 0.445434 -0.136407
vn -0.957181 0.27197 -0.0991829
vn -0.23766 -0.868947 -0.434107
vn -0.79066 0.230595 -0.567171
vn -0.229752 -0.717287 -0.657809
vn -0.307098 -0.796046 -0.521538
vn -0.307098 -0.796046 -0.521538
vn 0.758734 -0.369202 -0.536668
vn 0.920154 0.340369 -0.19356
vn 0.918313 -0.0973371 -0.383701
vn 0.289134 0.769933 -0.568862
vn 0.518987 -0.47476 -0.710814
vn 0.518987 -0.47476 -0.710814
vn -0.337855 -0.940996 0.0194873
vn -0.674259 -0.212139 0.707369
vn 0.604267 -0.336861 -0.722071
vn -0.0722602 0.896488 0.437135
vn 0.248099 0.872227 0.421506
vn -0.140179 0.758202 0.636772
vn -0.122633 0.731628 0.670583
vn 0.398402 0.880825 0.255781
vn 0.611872 0.790854 0.0127674
vn -0.689953 -0.536571 0.485857
vn -0.689953 -0.536571 0.485857
vn -0.31383 0.737616 0.597857
vn -0.31383 0.737616 0.597857
vn 0.246423 0.771096 0.5871
vn -0.368526 -0.650931 0.663685
vn 0.639191 0.187494 0.745842
vn 0.246423 0.771096 0.5871
vn 0.960816 0.0145922 0.276802
vn -0.922039 0.381672 0.0645745
vn -0.922039 0.381672 0.0645745
vn -0.0835557 -0.954163 -0.287387
vn 0.639191 0.187494 0.745842
vn 0.639191 0.187494 0.745842
vn -0.769564 0.196779 -0.607494
vn -0.822868 0.145309 -0.549339
vn -0.634223 0.749294 -0.190576
vn -0.222106 -0.740658 -0.63411
vn -0.307098 -0.796046 -0.521538
vn -0.307098 -0.796046 -0.521538
vn 0.746123 -0.457127 -0.484081
vn 0.962077 0.257779 -0.0892048
vn 0.972863 -0.138498 -0.185355
vn -0.0722602 0.896488 0.437135
vn 0.631812 0.737779 -0.237688
vn 0.769935 -0.215813 -0.600521
vn -0.40008 -0.907177 -0.130254
vn -0.776764 -0.0297375 0.62909
vn -0.0394893 0.883958 0.465895
vn -0.0722602 0.896488 0.437135
vn 0.313717 0.801532 0.509047
vn -0.231261 0.889492 0.394109
vn -0.295229 0.84948 0.437291
vn -0.689953 -0.536571 0.485857
vn -0.689953 -0.536571 0.485857
vn -0.689953 -0.536571 0.485857
vn -0.31383 0.737616 0.597857
vn -0.368526 -0.650931 0.663685
vn -0.31383 0.737616 0.597857
vn 0.246423 0.771096 0.5871
vn -0.368526 -0.650931 0.663685
vn 0.639191 0.187494 0.745842
vn 0.246423 0.771096 0.5871
vn 0.246423 0.771096 0.5871
vn -0.922039 0.381672 0.0645745
vn 0.0117329 -0.920867 -0.389701
vn -0.837563 0.215225 -0.502161
vn 0.639191 0.187494 0.745842
vn -0.56977 0.820754 -0.0415362
vn -0.620713 -0.0238671 -0.783674
vn -0.741988 0.6612 -0.110763
vn -0.37623 -0.750605 -0.543179
vn -0.307098 -0.796046 -0.521538
vn 0.754338 -0.469616 -0.458732
vn 0.884043 0.45462 -0.10858
vn 0.923017 -0.0191569 -0.384281
vn 0.620584 0.78414 0.000289322
vn 0.837441 0.0192012 -0.54619
vn -0.441795 -0.895522 -0.0534548
vn -0.761946 -0.00421312 0.647626
vn -0.149561 0.930882 0.333302
vn -0.149561 0.930882 0.333302
vn 0.365302 0.819558 0.441451
vn -0.461898 0.691072 0.555941
vn -0.461898 0.691072 0.555941
vn -0.381875 0.894915 0.230866
vn -0.486606 0.850722 0.19871
vn 0.668819 -0.0370352 0.742502
vn 0.109395 -0.89295 -0.436662
vn -0.860379 0.442099 -0.25357
vn -0.88191 0.444797 -0.156174
vn -0.946176 -0.258744 -0.194428
vn -0.458707 -0.554963 -0.693977
vn 0.550252 -0.564851 -0.614953
vn 0.852071 0.374568 0.365614
vn 0.365302 0.819558 0.441451
vn 0.929213 -0.0961399 -0.35682
vn 0.852071 0.374568 0.365614
vn 0.550252 -0.564851 -0.614953
vn -0.149561 0.930882 0.333302
vn 0.495956 0.86829 0.0100383
vn 0.90887 0.00861626 -0.41699
vn -0.752898 -0.049052 0.656307
vn 0.885673 -0.212646 -0.412753
vn -0.752898 -0.049052 0.656307
vn 0.365302 0.819558 0.441451
vn -0.461898 0.691072 0.555941
vn -0.461898 0.691072 0.555941
vn -0.292914 0.929534 0.223983
vn -0.292914 0.929534 0.223983
vn 0.687879 -0.0721362 0.722232
vn 0.0855069 -0.931774 -0.352826
vn -0.716418 0.650133 -0.253126
vn -0.292914 0.929534 0.223983
vn -0.461898 0.691072 0.555941
vn -0.980554 -0.0395345 0.192229
vn -0.946176 -0.258744 -0.194428
vn -0.946176 -0.258744 -0.194428
vn -0.299161 -0.645806 -0.702451
vn 0.550252 -0.564851 -0.614953
vn 0.852071 0.374568 0.365614
vn 0.812075 0.513198 0.277779
vn -0.260397 -0.490835 -0.831429
vn 0.960998 0.0813075 -0.264334
vn 0.250299 0.780652 0.572654
vn 0.250299 0.780652 0.572654
vn -0.752898 -0.049052 0.656307
vn 0.250299 0.780652 0.572654
vn 0.250299 0.780652 0.572654
vn -0.322652 0.835224 0.445305
vn 0.743543 -0.116742 0.658419
vn 0.510796 -0.858007 -0.0539635
vn -0.708107 0.696427 -0.116507
vn -0.708107 0.696427 -0.116507
vn -0.95342 0.207352 0.219077
vn -0.894328 -0.42805 -0.130193
vn -0.191035 0.740521 0.644309
vn 0.825906 0.509983 0.240409
vn -0.85899 -0.299894 -0.414969
vn -0.191311 -0.641219 -0.743127
vn 0.988812 0.0257718 -0.146924
vn 0.250299 0.780652 0.572654
vn -0.708107 0.696427 -0.116507
vn -0.708107 0.696427 -0.116507
vn -0.708107 0.696427 -0.116507
vn -0.845869 0.302483 0.439328
vn -0.222402 0.654675 0.722453
vn 0.921261 0.23652 0.308767
vn -0.766053 -0.479507 -0.42806
vn -0.147223 -0.601616 -0.785101
vn 0.931727 -0.00410066 -0.363136
vn -0.854655 0.0369279 0.517881
vn -0.18566 0.267251 0.945572
vn 0.955464 0.190591 0.225308
vn -0.783246 -0.494623 -0.376662
vn -0.125762 -0.707768 -0.695161
vn 0.912466 -0.203387 -0.355021
vn -0.910545 0.0524329 0.410072
vn -0.233439 0.357802 0.904148
vn 0.971627 -0.0808136 0.222283
vn -0.873806 -0.442695 -0.201206
vn -0.295159 -0.621348 -0.725815
vn 0.912466 -0.203387 -0.355021
vn 0.912466 -0.203387 -0.355021
vn -0.876179 0.00797253 0.48192
vn -0.391751 0.071907 0.917257
vn 0.347782 -0.675186 0.650516
vn 0.719287 0.105198 0.686702
vn -0.940666 -0.287456 -0.180321
vn -0.532728 -0.568098 -0.627269
vn 0.80962 -0.304561 -0.501755
vn -0.89681 -0.132357 0.422153
vn -0.542954 0.204316 0.814528
vn 0.0746878 -0.928815 -0.362939
vn -0.615567 -0.499163 0.609847
vn 0.295447 -0.386891 0.873514
vn 0.137676 0.576016 0.805761
vn -0.946141 -0.289023 -0.145885
vn -0.657109 -0.237369 -0.715447
vn 0.514693 -0.6722 -0.532202
vn -0.846513 0.334471 0.41418
vn -0.846513 0.334471 0.41418
vn -0.599022 -0.768108 -0.226234
vn 0.0261654 -0.992109 -0.122614
vn -0.742113 -0.641846 0.193136
vn -0.457964 -0.224081 0.860265
vn 0.34625 0.563146 0.750318
vn -0.125881 0.858528 0.497075
vn -0.976899 -0.100319 -0.18869
vn -0.534142 0.157011 -0.830686
vn -0.266868 -0.469715 -0.841516
vn -0.846513 0.334471 0.41418
vn -0.846513 0.334471 0.41418
vn -0.20832 -0.966396 -0.150606
vn -0.787864 -0.475158 -0.391783
vn -0.204033 -0.689937 -0.694519
vn -0.609916 -0.486411 0.625626
vn -0.793622 -0.604244 -0.071087
vn -0.385159 0.323376 0.864338
vn -0.57239 -0.290014 0.766982
vn 0.0394392 0.512734 0.857641
vn 0.0709666 0.902115 0.425619
vn -0.348281 0.936356 -0.0440252
vn -0.526778 0.532853 -0.662248
vn -0.534142 0.157011 -0.830686
vn -0.534142 0.157011 -0.830686
vn -0.496155 0.217636 -0.840515
vn -0.846513 0.334471 0.41418
vn -0.203316 -0.644815 -0.736801
vn -0.583235 -0.741104 -0.332568
vn -0.802984 -0.499234 -0.325548
vn -0.376597 0.262707 -0.888346
vn -0.756864 -0.561136 0.335086
vn -0.421683 -0.362048 0.831327
vn -0.766279 -0.595763 -0.240587
vn -0.91509 -0.168445 0.366384
vn -0.629232 0.363992 0.686715
vn -0.277086 -0.660956 0.697396
vn 0.0194934 0.943747 0.330094
vn -0.402973 0.663671 0.630201
vn -0.193118 0.970827 -0.14213
vn -0.372736 0.664213 -0.647989
vn -0.401108 0.119355 -0.908222
vn -0.283009 -0.489842 -0.824597
vn -0.81733 -0.427981 -0.385751
vn -0.717997 -0.582777 -0.380593
vn -0.328945 0.684736 -0.650333
vn -0.851799 -0.523546 0.0183913
vn -0.614158 -0.316181 0.723077
vn -0.132313 -0.338629 0.931571
vn -0.804704 -0.499865 -0.320291
vn 0.60569 0.101382 0.789216
vn -0.997286 0.0619907 -0.0397268
vn -0.794914 0.497075 0.34789
vn -0.123594 -0.392396 0.911455
vn 0.107326 -0.820766 0.561093
vn -0.430844 -0.635768 0.640447
vn -0.385278 0.8754 0.291952
vn -0.140954 0.969401 -0.200982
vn -0.580563 0.736713 0.3467
vn -0.618638 0.490214 -0.613985
vn -0.26615 0.0126577 -0.963848
vn -0.495098 -0.303826 -0.813983
vn -0.63243 -0.413518 -0.655007
vn -0.64278 -0.0399434 -0.765008
vn -0.61348 -0.569006 -0.547608
vn -0.898662 -0.396848 -0.186866
vn -0.911306 -0.243827 0.331767
vn -0.911306 -0.243827 0.331767
vn -0.192951 -0.0941623 0.97668
vn -0.163824 -0.381721 0.909643
vn -0.123594 -0.392396 0.911455
vn -0.471593 -0.814981 -0.336758
vn -0.188393 -0.775449 0.60265
vn -0.263405 0.893573 -0.363518
vn -0.814449 -0.111539 0.569413
vn -0.932638 0.306045 -0.19111
vn -0.614359 0.788767 -0.0202141
vn -0.123594 -0.392396 0.911455
vn 0.133937 -0.713042 0.688209
vn -0.0906107 -0.508225 0.856444
vn -0.207735 -0.369946 0.905531
vn -0.0906107 -0.508225 0.856444
vn -0.450348 0.870658 0.197844
vn -0.513704 0.857823 -0.0157408
vn -0.419578 0.902348 0.0986023
vn -0.193001 0.486328 -0.852195
vn -0.281987 0.206429 -0.936947
vn -0.484736 0.0167558 -0.8745
vn -0.64278 -0.0399434 -0.765008
vn -0.59099 -0.147007 -0.793171
vn -0.457164 -0.406463 -0.791069
vn -0.64278 -0.0399434 -0.765008
vn 0.098776 -0.663558 -0.741576
vn -0.193091 -0.798762 -0.56982
vn -0.956093 -0.29241 0.0195669
vn -0.911306 -0.243827 0.331767
vn -0.911306 -0.243827 0.331767
vn -0.147436 -0.0275889 0.988687
vn 0.18524 -0.251179 0.95005
vn 0.138896 -0.371045 0.918168
vn 0.0528029 -0.986718 -0.153623
vn -0.188393 -0.775449 0.60265
vn -0.188393 -0.775449 0.60265
vn -0.00805504 0.944948 -0.327123
vn -0.513282 0.0616537 0.856003
vn -0.873089 0.291546 0.39079
vn -0.624829 0.758353 -0.185712
vn -0.248756 0.950072 -0.18837
vn 0.0576971 -0.498389 0.865032
vn -0.0846681 -0.630235 0.771774
vn -0.0906107 -0.508225 0.856444
vn -0.0906107 -0.508225 0.856444
vn -0.249022 0.961834 -0.113417
vn -0.30845 0.880006 -0.361176
vn -0.324681 0.941196 0.0934444
vn -0.151308 0.51851 -0.841578
vn -0.348468 0.349555 -0.869702
vn -0.372968 0.132221 -0.918375
vn -0.333546 -0.238368 -0.912101
vn -0.0194132 -0.634253 -0.772882
vn -0.101873 -0.641004 -0.760747
vn -0.266679 -0.686268 -0.676697
vn 0.510873 -0.819158 -0.260746
vn -0.953702 -0.25904 0.152812
vn -0.911306 -0.243827 0.331767
vn -0.0713858 -0.195437 0.978115
vn 0.786379 -0.327372 0.523866
vn 0.786379 -0.327372 0.523866
vn -0.188587 -0.288609 0.938691
vn 0.0830391 -0.377138 0.922427
vn -0.100043 -0.987926 -0.118292
vn -0.188393 -0.775449 0.60265
vn -0.188393 -0.775449 0.60265
vn -0.00805504 0.944948 -0.327123
vn -0.00805504 0.944948 -0.327123
vn -0.513282 0.0616537 0.856003
vn -0.513282 0.0616537 0.856003
vn -0.539512 0.795829 0.274924
vn 0.706047 -0.238421 0.666823
vn -0.135058 0.985896 -0.0988372
vn -0.3893 0.919648 0.0518962
vn -0.0134116 -0.690518 0.723191
vn 0.369687 0.873893 -0.315663
vn 0.0180417 0.841583 -0.539827
vn -0.0906107 -0.508225 0.856444
vn -0.171824 0.743323 -0.646488
vn -0.453208 0.876141 -0.164256
vn -0.450073 0.890741 0.0633593
vn -0.351088 0.462682 -0.814041
vn -0.324515 0.365609 -0.872365
vn -0.140981 0.0471991 -0.988886
vn -0.272072 -0.132218 -0.95315
vn -0.338388 -0.382852 -0.859603
vn -0.272072 -0.132218 -0.95315
vn 0.00879169 -0.651592 -0.758518
vn 0.587871 -0.571455 -0.57258
vn 0.694484 -0.516544 -0.500874
vn -0.18427 -0.974292 -0.129612
vn 0.789417 -0.504979 -0.349022
vn -0.429457 -0.888003 -0.164372
vn 0.888085 -0.448957 0.0987033
vn 0.786379 -0.327372 0.523866
vn 0.786379 -0.327372 0.523866
vn -0.722089 -0.302688 0.622068
vn 0.173862 -0.0955093 0.980128
vn 0.415841 -0.337282 0.844581
vn 0.471995 -0.821804 -0.319154
vn -0.010768 -0.98828 0.152274
vn -0.00805504 0.944948 -0.327123
vn -0.0252192 0.973868 -0.225709
vn -0.00805504 0.944948 -0.327123
vn -0.513282 0.0616537 0.856003
vn -0.101659 0.970705 0.217707
vn -0.513282 0.0616537 0.856003
vn -0.260476 0.668779 0.696338
vn -0.014453 0.991342 -0.130505
vn 0.706047 -0.238421 0.666823
vn 0.706047 -0.238421 0.666823
vn -0.014453 0.991342 -0.130505
vn 0.0960522 0.984857 0.144326
vn 0.361255 0.928577 0.0850853
vn -0.450073 0.890741 0.0633593
vn 0.69921 -0.542538 0.465572
vn -0.459853 0.298737 0.836237
vn 0.0898201 0.938343 -0.333835
vn 0.0180417 0.841583 -0.539827
vn 0.0180417 0.841583 -0.539827
vn -0.426769 0.634384 -0.644535
vn -0.374948 0.903301 -0.208475
vn -0.450073 0.890741 0.0633593
vn -0.29465 0.472273 -0.830746
vn -0.273134 0.563687 -0.779522
vn -0.140981 0.0471991 -0.988886
vn -0.140981 0.0471991 -0.988886
vn -0.272072 -0.132218 -0.95315
vn -0.261181 0.0379257 -0.964545
vn 0.26618 -0.527188 -0.806983
vn 0.581203 -0.483893 -0.654256
vn 0.792296 -0.477481 -0.379842
vn 0.694484 -0.516544 -0.500874
vn 0.694484 -0.516544 -0.500874
vn 0.786379 -0.327372 0.523866
vn -0.882274 -0.457238 0.111919
vn 0.186979 -0.765199 -0.616043
vn -0.714377 -0.609851 -0.343143
vn -0.902449 -0.155741 0.401659
vn 0.128973 0.030215 0.991188
vn 0.581526 -0.291195 0.759627
vn 0.415841 -0.337282 0.844581
vn 0.415841 -0.337282 0.844581
vn 0.816828 -0.499647 -0.288348
vn -0.0963216 -0.96405 0.24765
vn -0.242014 -0.685146 0.687025
vn -0.114843 -0.795259 0.595293
vn 0.206625 -0.0229099 0.978152
vn -0.260476 0.668779 0.696338
vn -0.260476 0.668779 0.696338
vn -0.014453 0.991342 -0.130505
vn 0.256372 0.966284 -0.0238438
vn 0.065345 0.843587 0.533002
vn 0.160367 0.973356 -0.163893
vn 0.451783 0.890652 0.0512914
vn 0.065345 0.843587 0.533002
vn -0.450073 0.890741 0.0633593
vn 0.850868 -0.351357 0.390604
vn -0.0524425 -0.942969 0.328725
vn 0.0168554 -0.767861 0.640395
vn -0.315237 0.576418 -0.753902
vn 0.329217 0.928395 -0.172336
vn -0.369629 0.55178 -0.747605
vn -0.450073 0.890741 0.0633593
vn -0.258422 0.349049 -0.900768
vn -0.315237 0.576418 -0.753902
vn 0.517447 0.369253 -0.771946
vn -0.140981 0.0471991 -0.988886
vn -0.140981 0.0471991 -0.988886
vn 0.375296 -0.132753 -0.917349
vn 0.520724 -0.165721 -0.837486
vn 0.520724 -0.165721 -0.837486
vn 0.745327 -0.495377 -0.446195
vn 0.792296 -0.477481 -0.379842
vn 0.792296 -0.477481 -0.379842
vn -0.882274 -0.457238 0.111919
vn -0.882274 -0.457238 0.111919
vn 0.897598 -0.396529 -0.192569
vn 0.183865 -0.737462 -0.64988
vn -0.808628 -0.578237 0.108456
vn -0.808628 -0.578237 0.108456
vn 0.11047 -0.116771 0.986996
vn 0.900897 -0.250824 0.354221
vn 0.900897 -0.250824 0.354221
vn 0.761965 -0.541527 0.355187
vn 0.415841 -0.337282 0.844581
vn 0.415841 -0.337282 0.844581
vn 0.73611 -0.62822 -0.251956
vn -0.0963216 -0.96405 0.24765
vn -0.0963216 -0.96405 0.24765
vn -0.242014 -0.685146 0.687025
vn -0.242014 -0.685146 0.687025
vn 0.0334255 0.129358 0.991035
vn -0.233409 0.144937 0.961516
vn 0.40396 0.636752 0.656782
vn -0.262646 0.964095 -0.0392229
vn 0.065345 0.843587 0.533002
vn 0.0216484 0.991192 -0.130655
vn 0.618041 0.78613 -0.00502018
vn 0.257253 0.958122 0.125792
vn 0.257253 0.958122 0.125792
vn 0.349555 0.936449 0.029572
vn 0.850868 -0.351357 0.390604
vn 0.850868 -0.351357 0.390604
vn 0.0783621 -0.843154 0.53193
vn 0.789699 -0.133629 0.598765
vn -0.0391451 -0.897604 0.439062
vn -0.315237 0.576418 -0.753902
vn 0.329217 0.928395 -0.172336
vn 0.329217 0.928395 -0.172336
vn 0.429394 0.623749 -0.653114
vn 0.349555 0.936449 0.029572
vn 0.403832 0.375232 -0.834339
vn 0.517447 0.369253 -0.771946
vn 0.517447 0.369253 -0.771946
vn 0.286153 0.204292 -0.936152
vn 0.551482 -0.259004 -0.79296
vn 0.520724 -0.165721 -0.837486
vn 0.646141 -0.273816 -0.712409
vn 0.772289 -0.500135 -0.391708
vn 0.844886 -0.534938 -0.0029484
vn 0.957157 -0.2864 0.0427223
vn 0.453052 -0.872707 -0.182009
vn -0.808628 -0.578237 0.108456
vn -0.808628 -0.578237 0.108456
vn 0.897024 -0.340122 0.28225
vn 0.900897 -0.250824 0.354221
vn 0.900897 -0.250824 0.354221
vn 0.751275 -0.65819 0.0487019
vn 0.52328 -0.442098 0.72851
vn 0.50935 -0.233998 0.828135
vn -0.0963216 -0.96405 0.24765
vn 0.0334255 0.129358 0.991035
vn -0.0963216 -0.96405 0.24765
vn -0.242014 -0.685146 0.687025
vn -0.242014 -0.685146 0.687025
vn 0.0334255 0.129358 0.991035
vn -0.233409 0.144937 0.961516
vn -0.233409 0.144937 0.961516
vn -0.501367 0.58904 0.633769
vn -0.262646 0.964095 -0.0392229
vn -0.262646 0.964095 -0.0392229
vn -0.262646 0.964095 -0.0392229
vn -0.0173035 0.999727 -0.0156711
vn 0.632492 0.739575 -0.23018
vn 0.777878 0.445129 0.443584
vn 0.418736 0.903592 0.090456
vn 0.257253 0.958122 0.125792
vn 0.349555 0.936449 0.029572
vn 0.981966 -0.0512306 0.181983
vn -0.140933 -0.977052 0.15971
vn 0.193267 -0.0413837 0.980273
vn 0.917783 0.170541 0.358595
vn 0.0307018 0.0713552 0.996978
vn 0.349555 0.936449 0.029572
vn 0.343026 0.92131 -0.183086
vn 0.431603 0.625005 -0.650452
vn 0.373805 0.470858 -0.799101
vn 0.306601 0.365678 -0.878792
vn 0.513925 0.0496661 -0.856396
vn 0.718633 -0.514969 -0.467304
vn 0.530779 -0.183439 -0.82742
vn 0.757152 -0.538672 -0.369532
vn 0.900897 -0.250824 0.354221
vn -0.808628 -0.578237 0.108456
vn 0.678844 -0.61529 0.400736
vn 0.320318 -0.101817 0.941823
vn 0.511049 0.237929 0.825966
vn 0.320318 -0.101817 0.941823
vn 0.0307018 0.0713552 0.996978
vn -0.233409 0.144937 0.961516
vn -0.233409 0.144937 0.961516
vn -0.464824 -0.00547247 0.885386
vn -0.0556121 0.722908 0.688703
vn -0.262646 0.964095 -0.0392229
vn 0.506262 0.86203 -0.0245345
vn 0.944133 0.296348 -0.144187
vn 0.442736 0.568271 0.69358
vn 0.564862 0.757018 0.328412
vn 0.302086 0.942052 -0.145886
vn 0.342876 0.938084 0.0493438
vn 0.349555 0.936449 0.029572
vn 0.0307018 0.0713552 0.996978
vn 0.0919761 0.993224 0.0710396
vn 0.438522 0.424251 0.792281
vn 0.457511 0.870597 -0.180953
vn 0.250922 0.718298 -0.648911
vn 0.201227 0.526153 -0.826239
vn 0.364545 0.363339 -0.857375
vn 0.410924 -0.426063 -0.805985
vn 0.356468 -0.87741 -0.321064
vn 0.322707 0.234872 -0.916894
vn 0.608961 -0.792296 -0.0378685
vn 0.474348 -0.358923 0.803846
vn 0.320318 -0.101817 0.941823
vn 0.100266 0.0255772 0.994632
vn -0.464824 -0.00547247 0.885386
vn -0.464824 -0.00547247 0.885386
vn 0.705997 -0.637412 0.308666
vn -0.0659208 0.578051 0.813334
vn 0.373176 0.785822 0.493176
vn 0.352817 0.926566 0.130369
vn 0.105274 0.833423 -0.542516
vn -0.0221719 0.53132 -0.846881
vn 0.17363 -0.0378887 -0.984082
vn 0.193933 -0.643566 -0.740414
vn 0.254611 -0.965581 -0.0531751
vn 0.646125 -0.630782 0.429694
vn 0.646125 -0.630782 0.429694
vn -0.361862 -0.264616 0.893887
vn -0.289392 0.501905 0.815073
vn -0.0930646 0.848661 0.520686
vn 0.499698 0.838441 0.217528
vn 0.692088 0.689917 -0.212198
vn 0.619354 0.342523 -0.706455
vn 0.490271 0.0913063 -0.866774
vn 0.240994 -0.764371 -0.598046
vn -0.246771 -0.934536 -0.25641
vn 0.646125 -0.630782 0.429694
vn -0.413319 -0.857624 0.306021
vn -0.781307 0.153359 0.605012
vn -0.173016 0.592835 0.786519
vn -0.11268 0.83154 0.543915
vn 0.0761926 0.994355 -0.0738472
vn 0.619354 0.342523 -0.706455
vn 0.260259 0.833091 -0.488083
vn 0.619354 0.342523 -0.706455
vn 0.366139 0.280823 -0.887176
vn 0.111838 -0.790844 -0.601713
vn -0.646362 -0.532578 -0.546422
vn -0.995259 -0.0153348 0.0960432
vn 0.34569 0.0702101 0.935719
vn 0.555725 0.23182 0.798392
vn 0.120023 0.814537 0.56756
vn 0.152239 0.986225 -0.0646761
vn 0.338859 0.749703 -0.568437
vn 0.469647 0.217125 -0.855739
vn 0.131204 -0.559473 -0.818398
vn -0.82259 -0.178964 -0.539738
vn 0.548007 -0.589427 -0.593519
vn -0.958904 0.132238 0.251031
vn 0.209743 0.335964 0.918224
vn 0.825211 0.00634115 0.564789
vn 0.902435 -0.0825813 0.422838
vn 0.622388 0.523995 0.581432
vn 0.242583 0.97013 0.00124154
vn 0.352345 0.64948 -0.673817
vn 0.477344 0.0937892 -0.873697
vn 0.654045 -0.480894 -0.583923
vn 0.338526 -0.640493 -0.689325
vn -0.943874 0.0184546 -0.329788
vn 0.654045 -0.480894 -0.583923
vn 0.945281 -0.266682 -0.187948
vn -0.886794 0.324205 0.329375
vn 0.195498 0.343893 0.918432
vn 0.85279 0.125834 0.506868
vn 0.963993 -0.260854 -0.0517029
vn 0.984707 -0.0736511 0.157887
vn 0.632483 0.761383 0.14234
vn 0.632483 0.761383 0.14234
vn 0.90463 0.309848 -0.292641
vn 0.797405 -0.122225 -0.590937
vn 0.654045 -0.480894 -0.583923
vn 0.297959 -0.596041 -0.745624
vn -0.990372 0.0115394 -0.137947
vn -0.0684783 -0.694855 -0.715882
vn 0.881784 -0.35995 -0.304784
vn -0.772441 0.539555 0.334985
vn 0.201927 0.646181 0.735987
vn 0.826065 0.0287478 0.562841
vn 0.992047 -0.107862 0.064868
vn 0.632483 0.761383 0.14234
vn 0.797405 -0.122225 -0.590937
vn 0.797405 -0.122225 -0.590937
vn 0.515062 -0.716129 -0.471031
vn -0.0684783 -0.694855 -0.715882
vn 0.00594033 -0.620848 -0.783908
vn -0.94172 0.122385 -0.313345
vn -0.0684783 -0.694855 -0.715882
vn -0.787992 0.540738 0.2944
vn 0.94091 0.201589 0.272123
vn 0.196978 0.788221 0.583016
vn 0.979789 -0.0969031 0.174994
vn 0.979789 -0.0969031 0.174994
vn 0.979789 -0.0969031 0.174994
vn 0.475964 -0.545687 -0.689699
vn 0.170527 -0.68402 -0.709251
vn -0.968271 -0.067589 -0.24059
vn -0.876234 0.481771 -0.0105104
vn 0.96373 0.133376 0.231162
vn 0.323559 0.836621 0.442012
vn 0.433589 -0.389602 -0.812534
vn -0.0619026 -0.483454 -0.873178
vn -0.970948 -0.0512451 -0.233741
vn -0.949834 0.307948 -0.0546243
vn -0.207807 0.859649 0.466713
vn 0.979774 0.1837 0.0793545
vn 0.977561 -0.155959 0.141601
vn -0.207807 0.859649 0.466713
vn 0.510488 0.762194 0.398073
vn 0.548037 -0.66758 -0.503977
vn 0.977561 -0.155959 0.141601
vn -0.485192 -0.499975 -0.717366
vn -0.957857 -0.0582057 -0.281287
vn -0.2907 0.786498 0.544898
vn -0.957857 -0.0582057 -0.281287
vn -0.869955 0.476548 -0.126804
vn -0.207807 0.859649 0.466713
vn 0.869469 0.483039 -0.103429
vn 0.960766 -0.261305 -0.0929937
vn 0.977561 -0.155959 0.141601
vn 0.117036 0.811894 0.571953
vn 0.349758 0.884303 0.309316
vn 0.518387 -0.546995 -0.657322
vn -0.680811 -0.41809 -0.601413
vn -0.957857 -0.0582057 -0.281287
vn -0.289293 0.872678 0.393374
vn 0.117036 0.811894 0.571953
vn -0.957857 -0.0582057 -0.281287
vn -0.815389 0.526455 -0.240802
vn -0.887706 -0.135708 -0.439957
vn 0.651751 -0.0139008 -0.758305
vn 0.696912 0.677073 -0.236402
vn 0.899923 -0.209123 -0.38263
vn 0.117036 0.811894 0.571953
vn 0.165186 0.756268 0.633066
vn 0.188512 0.844652 0.501025
vn 0.275203 -0.80222 -0.529818
vn 0.899923 -0.209123 -0.38263
vn -0.773447 -0.454854 -0.441461
vn -0.957857 -0.0582057 -0.281287
vn -0.226024 0.947367 0.226735
vn 0.0976131 0.806028 0.583772
vn -0.712918 -0.696243 -0.0836314
vn -0.682969 0.611666 -0.399272
vn -0.226024 0.947367 0.226735
vn -0.776543 -0.317869 -0.544004
vn 0.822349 0.0514535 -0.566652
vn 0.0768196 -0.7743 -0.628139
vn 0.899923 -0.209123 -0.38263
vn 0.686498 0.686103 -0.240795
vn 0.174043 0.672675 0.719178
vn 0.115385 0.699396 0.705359
vn 0.0540475 0.671161 0.739339
vn 0.293386 -0.833496 -0.468198
vn 0.0768196 -0.7743 -0.628139
vn -0.226024 0.947367 0.226735
vn -0.0220893 0.842331 0.538507
vn -0.657428 -0.662807 0.358434
vn -0.575733 -0.756044 -0.311336
vn 0.0124474 0.927039 0.374759
vn -0.363969 -0.596603 -0.715256
vn -0.705441 0.553786 -0.44235
vn 0.137702 -0.843562 -0.519077
vn 0.746083 0.0619206 -0.662967
vn 0.0768196 -0.7743 -0.628139
vn 0.66334 0.744287 -0.0775709
vn -0.583081 -0.350585 0.732875
vn 0.113128 0.730708 0.673252
vn -0.0709952 0.748282 0.659571
vn 0.0540475 0.671161 0.739339
vn 0.0540475 0.671161 0.739339
vn 0.0658935 -0.963113 -0.260907
vn -0.468842 -0.880781 0.0664291
vn -0.575733 -0.756044 -0.311336
vn -0.575733 -0.756044 -0.311336
vn -0.0670178 0.910779 0.407419
vn 0.585565 -0.256558 0.768955
vn 0.304335 -0.947464 -0.0984523
vn -0.437088 -0.668783 -0.601401
vn -0.930023 -0.0169128 -0.367113
vn 0.129636 -0.911884 -0.389437
vn 0.763018 0.11042 -0.636876
vn 0.554088 0.831249 0.044854
vn -0.638685 -0.76726 0.0582609
vn -0.84222 0.534499 -0.0705475
vn -0.74917 0.209847 0.628258
vn 0.015781 0.839302 0.543437
vn -0.163773 0.765379 0.622394
vn 0.0540475 0.671161 0.739339
vn 0.0540475 0.671161 0.739339
vn -0.0958255 -0.968412 -0.23021
vn -0.327242 -0.942169 -0.0723145
vn -0.218857 0.922158 0.318945
vn 0.564694 -0.38532 0.729828
vn 0.452834 -0.882415 -0.127611
vn 0.452834 -0.882415 -0.127611
vn -0.347185 -0.71411 -0.607873
vn -0.732164 -0.193088 -0.653187
vn -0.347185 -0.71411 -0.607873
vn -0.0148674 -0.99964 0.0223474
vn 0.827001 0.0934229 -0.554384
vn -0.0148674 -0.99964 0.0223474
vn -0.149879 0.844068 -0.514864
vn 0.497316 0.857236 0.133501
vn -0.0845608 -0.922074 -0.377662
vn -0.79273 0.608775 -0.0311716
vn 0.797531 -0.593609 0.107574
vn -0.611963 -0.643615 0.459632
vn 0.0369734 0.874824 0.483028
vn 0.926452 0.357666 0.117309
vn -0.916937 -0.244734 0.31517
vn -0.26338 0.785846 0.559533
vn 0.597627 0.656856 -0.459763
vn 0.189303 -0.953402 0.234924
vn -0.329897 0.89876 0.288787
vn 0.669171 -0.491307 0.55752
vn 0.452834 -0.882415 -0.127611
vn -0.347185 -0.71411 -0.607873
vn 0.826046 -0.460851 0.324444
vn -0.797742 0.344189 -0.495119
vn -0.329897 0.89876 0.288787
vn -0.0148674 -0.99964 0.0223474
vn 0.767304 0.140666 -0.625666
vn 0.996693 -0.0782444 0.0219092
vn -0.0148674 -0.99964 0.0223474
vn -0.718781 -0.059561 0.692681
vn 0.401917 0.874476 0.271579
vn -0.116515 -0.867198 -0.48414
vn -0.557599 0.810108 0.181131
vn 0.676894 -0.698601 0.231885
vn 0.273915 -0.641954 -0.716146
vn 0.127062 0.802521 0.582937
vn 0.597627 0.656856 -0.459763
vn 0.994034 -0.0281696 0.105371
vn 0.172099 -0.89666 -0.407901
vn -0.875961 -0.431175 0.216286
vn -0.26338 0.785846 0.559533
vn -0.26338 0.785846 0.559533
vn 0.597627 0.656856 -0.459763
vn -0.0148674 -0.99964 0.0223474
vn -0.329897 0.89876 0.288787
vn -0.329897 0.89876 0.288787
vn -0.329897 0.89876 0.288787
vn 0.771794 0.238825 -0.58932
vn -0.224428 -0.932673 -0.282406
vn -0.769615 -0.0567147 0.635985
vn -0.0762977 0.708498 0.701577
vn -0.329501 -0.744943 -0.580077
vn 0.127062 0.802521 0.582937
vn -0.263981 0.935829 0.233536
vn 0.750321 -0.554387 0.360103
vn 0.127062 0.802521 0.582937
vn 0.985656 -0.0617017 -0.157084
vn 0.180095 -0.844109 -0.50502
vn 0.180095 -0.844109 -0.50502
vn 0.180095 -0.844109 -0.50502
vn -0.942138 -0.304732 0.139697
vn -0.26338 0.785846 0.559533
vn -0.26338 0.785846 0.559533
vn -0.312178 -0.949316 -0.0366663
vn 0.889148 0.372811 -0.265383
vn -0.0762977 0.708498 0.701577
vn -0.0762977 0.708498 0.701577
vn -0.48585 -0.56379 -0.667901
vn -0.213877 0.907806 0.360756
vn 0.782541 -0.518586 0.344526
vn 0.97684 0.0229144 -0.212739
vn -0.942138 -0.304732 0.139697
vn -0.942138 -0.304732 0.139697
vn -0.461311 -0.885188 -0.0602764
vn 0.702767 0.709054 0.0579718
vn -0.461311 -0.885188 -0.0602764
vn -0.0762977 0.708498 0.701577
vn -0.0762977 0.708498 0.701577
vn -0.54835 -0.404539 -0.731889
vn 0.648418 -0.673318 0.355243
vn -0.48525 0.789602 0.375581
vn 0.648418 -0.673318 0.355243
vn 0.97684 0.0229144 -0.212739
vn 0.97684 0.0229144 -0.212739
vn -0.942138 -0.304732 0.139697
vn -0.942138 -0.304732 0.139697
vn -0.461311 -0.885188 -0.0602764
vn -0.461311 -0.885188 -0.0602764
vn -0.461311 -0.885188 -0.0602764
vn 0.648418 -0.673318 0.355243
vn 0.648418 -0.673318 0.355243
vn 0.648418 -0.673318 0.355243
vn -0.975143 0.105994 -0.194579
vn -0.975143 0.105994 -0.194579
vn -0.975143 0.105994 -0.194579
vn -0.975143 0.105994 -0.194579
vn -0.975143 0.105994 -0.194579
vn -0.975143 0.105994 -0.194579
vn -0.857941 0.0540257 -0.5109
vn -0.857941 0.0540257 -0.5109
vn -0.857941 0.0540257 -0.5109
vn -0.857941 0.0540257 -0.5109
vn -0.857941 0.0540257 -0.5109
vn -0.857941 0.0540257 -0.5109
f 1//2 4//2 5//2 2//2 
f 1//5 7//5 8//5 4//5 
f 5//6 4//6 9//6 10//6 
f 5//7 11//7 12//7 2//7 
f 13//8 14//8 6//8 2//8 
f 1//9 6//9 15//9 16//9 
f 1//10 16//10 17//10 7//10 
f 7//11 18//11 19//11 8//11 
f 20//12 9//12 4//12 8//12 
f 15//13 10//13 9//13 16//13 
f 5//14 10//14 21//14 22//14 
f 5//15 22//15 23//15 11//15 
f 24//16 25//16 12//16 11//16 
f 13//17 2//17 12//17 26//17 
f 13//18 27//18 28//18 14//18 
f 14//19 29//19 30//19 6//19 
f 15//20 6//20 31//20 32//20 
f 20//21 17//21 16//21 9//21 
f 7//22 17//22 33//22 18//22 
f 34//23 35//23 19//23 18//23 
f 20//24 8//24 19//24 33//24 
f 15//25 36//25 37//25 10//25 
f 38//26 21//26 10//26 37//26 
f 22//27 21//27 39//27 40//27 
f 22//28 40//28 41//28 23//28 
f 24//29 11//29 23//29 42//29 
f 43//30 44//30 25//30 24//30 
f 45//31 26//31 12//31 25//31 
f 13//32 26//32 46//32 27//32 
f 47//33 28//33 27//33 48//33 
f 14//34 28//34 49//34 31//34 
f 51//36 52//36 30//36 29//36 
f 6//37 30//37 53//37 31//37 
f 49//38 54//38 32//38 31//38 
f 34//42 18//42 33//42 57//42 
f 34//43 58//43 59//43 35//43 
f 35//44 57//44 33//44 19//44 
f 38//48 61//48 39//48 21//48 
f 23//49 38//49 37//49 62//49 
f 63//50 40//50 39//50 64//50 
f 63//51 65//51 41//51 40//51 
f 41//52 61//52 38//52 23//52 
f 66//53 42//53 23//53 67//53 
f 43//54 24//54 42//54 68//54 
f 69//55 44//55 43//55 70//55 
f 45//56 25//56 44//56 71//56 
f 73//59 48//59 27//59 46//59 
f 47//60 74//60 49//60 28//60 
f 47//61 48//61 75//61 76//61 
f 14//62 31//62 77//62 78//62 
f 51//65 79//65 80//65 52//65 
f 81//66 53//66 30//66 52//66 
f 51//67 29//67 78//67 82//67 
f 49//69 74//69 84//69 54//69 
f 85//70 36//70 32//70 54//70 
f 34//72 57//72 86//72 58//72 
f 87//73 59//73 58//73 86//73 
f 63//82 64//82 93//82 65//82 
f 66//85 95//85 68//85 42//85 
f 70//88 43//88 68//88 96//88 
f 97//89 71//89 44//89 69//89 
f 69//90 70//90 89//90 98//90 
f 45//91 71//91 99//91 100//91 
f 73//94 101//94 75//94 48//94 
f 47//95 76//95 102//95 74//95 
f 103//96 104//96 76//96 75//96 
f 82//98 78//98 77//98 105//98 
f 51//99 82//99 106//99 79//99 
f 107//100 108//100 80//100 79//100 
f 80//101 109//101 81//101 52//101 
f 81//102 105//102 77//102 53//102 
f 102//104 110//104 84//104 74//104 
f 85//105 54//105 84//105 111//105 
f 85//106 98//106 89//106 36//106 
f 66//119 113//119 114//119 95//119 
f 95//120 115//120 96//120 68//120 
f 89//122 70//122 96//122 62//122 
f 97//123 116//123 99//123 71//123 
f 117//124 97//124 69//124 98//124 
f 73//125 100//125 99//125 101//125 
f 101//127 118//127 103//127 75//127 
f 76//128 104//128 119//128 102//128 
f 120//129 121//129 104//129 103//129 
f 106//130 82//130 105//130 109//130 
f 107//131 79//131 106//131 122//131 
f 123//132 108//132 107//132 124//132 
f 125//133 109//133 80//133 108//133 
f 117//139 98//139 85//139 111//139 
f 112//140 62//140 96//140 115//140 
f 66//141 112//141 129//141 113//141 
f 114//142 113//142 130//142 131//142 
f 95//143 114//143 129//143 115//143 
f 117//144 132//144 116//144 97//144 
f 101//146 99//146 134//146 118//146 
f 137//150 121//150 120//150 138//150 
f 125//154 122//154 106//154 109//154 
f 107//155 122//155 139//155 124//155 
f 123//157 124//157 139//157 141//157 
f 143//164 130//164 113//164 129//164 
f 131//165 130//165 144//165 145//165 
f 114//166 131//166 143//166 129//166 
f 132//169 146//169 147//169 116//169 
f 120//172 118//172 134//172 148//172 
f 149//175 119//175 121//175 137//175 
f 120//176 148//176 150//176 138//176 
f 137//177 138//177 151//177 152//177 
f 132//183 110//183 119//183 146//183 
f 154//184 144//184 130//184 143//184 
f 154//185 155//185 145//185 144//185 
f 157//188 147//188 146//188 158//188 
f 148//189 134//189 116//189 147//189 
f 149//190 158//190 146//190 119//190 
f 149//191 137//191 152//191 159//191 
f 157//192 150//192 148//192 147//192 
f 160//193 151//193 138//193 150//193 
f 152//194 151//194 161//194 162//194 
f 157//199 158//199 163//199 164//199 
f 149//200 159//200 163//200 158//200 
f 152//201 162//201 165//201 159//201 
f 157//202 164//202 160//202 150//202 
f 160//203 166//203 161//203 151//203 
f 167//204 162//204 161//204 168//204 
f 163//205 169//205 170//205 164//205 
f 163//206 159//206 165//206 169//206 
f 171//207 165//207 162//207 167//207 
f 164//208 170//208 166//208 160//208 
f 166//209 172//209 168//209 161//209 
f 169//211 174//211 175//211 170//211 
f 169//212 165//212 171//212 174//212 
f 171//213 167//213 176//213 177//213 
f 166//214 170//214 175//214 172//214 
f 178//215 179//215 168//215 172//215 
f 180//218 181//218 175//218 174//218 
f 180//219 174//219 171//219 182//219 
f 177//220 176//220 183//220 184//220 
f 171//221 177//221 185//221 182//221 
f 178//222 172//222 175//222 181//222 
f 186//223 187//223 179//223 178//223 
f 176//224 168//224 179//224 188//224 
f 180//225 189//225 190//225 181//225 
f 180//226 182//226 191//226 189//226 
f 192//227 183//227 176//227 188//227 
f 193//228 184//228 183//228 194//228 
f 193//229 185//229 177//229 184//229 
f 195//230 191//230 182//230 185//230 
f 186//231 178//231 181//231 190//231 
f 196//232 197//232 187//232 186//232 
f 198//233 188//233 179//233 187//233 
f 192//236 200//236 201//236 183//236 
f 192//237 188//237 198//237 202//237 
f 203//238 194//238 183//238 201//238 
f 204//239 193//239 194//239 205//239 
f 195//240 185//240 193//240 206//240 
f 195//241 207//241 208//241 191//241 
f 196//242 186//242 190//242 209//242 
f 197//244 211//244 198//244 187//244 
f 192//247 202//247 212//247 200//247 
f 213//248 214//248 201//248 200//248 
f 215//249 202//249 198//249 211//249 
f 203//250 216//250 205//250 194//250 
f 203//251 201//251 214//251 217//251 
f 204//252 218//252 219//252 193//252 
f 204//253 205//253 220//253 221//253 
f 222//254 206//254 193//254 219//254 
f 195//255 206//255 223//255 207//255 
f 209//256 208//256 207//256 224//256 
f 196//257 209//257 224//257 225//257 
f 197//260 225//260 226//260 211//260 
f 215//262 227//262 212//262 202//262 
f 213//263 200//263 212//263 228//263 
f 229//264 230//264 214//264 213//264 
f 215//265 211//265 226//265 231//265 
f 203//266 217//266 232//266 216//266 
f 205//267 216//267 233//267 220//267 
f 234//268 217//268 214//268 230//268 
f 204//269 221//269 235//269 218//269 
f 236//270 237//270 219//270 218//270 
f 221//271 220//271 238//271 239//271 
f 222//272 240//272 223//272 206//272 
f 222//273 219//273 237//273 241//273 
f 242//274 224//274 207//274 223//274 
f 242//275 226//275 225//275 224//275 
f 215//276 231//276 243//276 227//276 
f 212//277 227//277 244//277 228//277 
f 245//278 229//278 213//278 228//278 
f 246//279 230//279 229//279 247//279 
f 248//280 231//280 226//280 242//280 
f 234//281 249//281 232//281 217//281 
f 232//282 250//282 233//282 216//282 
f 251//283 252//283 220//283 233//283 
f 246//284 253//284 234//284 230//284 
f 254//285 235//285 221//285 255//285 
f 236//286 218//286 235//286 256//286 
f 236//287 257//287 258//287 237//287 
f 260//289 261//289 239//289 238//289 
f 221//290 239//290 262//290 255//290 
f 222//291 241//291 263//291 240//291 
f 248//292 242//292 223//292 240//292 
f 241//293 237//293 258//293 264//293 
f 248//294 265//294 243//294 231//294 
f 227//295 243//295 266//295 244//295 
f 267//296 268//296 228//296 244//296 
f 245//297 269//297 247//297 229//297 
f 246//299 247//299 271//299 272//299 
f 234//300 253//300 273//300 249//300 
f 251//303 233//303 250//303 275//303 
f 251//304 276//304 277//304 252//304 
f 246//306 272//306 278//306 253//306 
f 254//308 255//308 262//308 280//308 
f 281//309 282//309 256//309 235//309 
f 236//310 256//310 283//310 257//310 
f 284//311 285//311 258//311 257//311 
f 286//313 261//313 260//313 287//313 
f 260//315 238//315 252//315 277//315 
f 241//317 264//317 289//317 263//317 
f 248//318 240//318 263//318 265//318 
f 290//319 264//319 258//319 285//319 
f 266//320 243//320 265//320 291//320 
f 267//321 244//321 266//321 292//321 
f 267//322 293//322 294//322 268//322 
f 245//324 268//324 294//324 269//324 
f 271//325 247//325 269//325 295//325 
f 296//327 297//327 272//327 271//327 
f 298//328 273//328 253//328 278//328 
f 249//329 273//329 299//329 300//329 
f 275//332 250//332 301//332 302//332 
f 251//333 275//333 303//333 276//333 
f 304//334 305//334 277//334 276//334 
f 306//335 278//335 272//335 297//335 
f 309//340 283//340 256//340 282//340 
f 284//341 257//341 283//341 310//341 
f 284//342 311//342 312//342 285//342 
f 260//343 277//343 305//343 287//343 
f 286//344 287//344 313//344 314//344 
f 317//347 289//347 264//347 290//347 
f 263//348 289//348 291//348 265//348 
f 318//349 290//349 285//349 312//349 
f 319//350 292//350 266//350 291//350 
f 267//351 292//351 320//351 293//351 
f 293//352 321//352 322//352 294//352 
f 323//353 295//353 269//353 294//353 
f 296//354 271//354 295//354 324//354 
f 296//355 325//355 326//355 297//355 
f 298//356 327//356 299//356 273//356 
f 328//357 298//357 278//357 306//357 
f 329//358 301//358 300//358 299//358 
f 330//360 302//360 301//360 329//360 
f 304//363 276//363 303//363 332//363 
f 304//364 333//364 334//364 305//364 
f 306//365 297//365 326//365 335//365 
f 309//372 340//372 310//372 283//372 
f 284//374 310//374 342//374 311//374 
f 343//375 344//375 312//375 311//375 
f 305//376 334//376 313//376 287//376 
f 313//377 345//377 346//377 314//377 
f 317//380 319//380 291//380 289//380 
f 318//381 348//381 317//381 290//381 
f 319//383 350//383 320//383 292//383 
f 293//384 320//384 351//384 321//384 
f 323//387 354//387 324//387 295//387 
f 296//389 324//389 355//389 325//389 
f 326//390 325//390 356//390 357//390 
f 330//392 329//392 299//392 327//392 
f 359//393 360//393 298//393 328//393 
f 328//394 306//394 335//394 361//394 
f 330//395 327//395 360//395 302//395 
f 359//398 362//398 332//398 303//398 
f 304//399 332//399 363//399 333//399 
f 326//401 357//401 365//401 335//401 
f 336//402 366//402 338//402 281//402 
f 315//404 367//404 280//404 337//404 
f 368//407 282//407 339//407 369//407 
f 343//414 311//414 342//414 372//414 
f 373//415 374//415 344//415 343//415 
f 313//417 334//417 375//417 376//417 
f 313//418 376//418 377//418 345//418 
f 337//419 346//419 345//419 378//419 
f 348//422 350//422 319//422 317//422 
f 318//423 379//423 380//423 348//423 
f 381//425 351//425 320//425 350//425 
f 382//426 383//426 321//426 351//426 
f 384//430 354//430 323//430 322//430 
f 355//431 324//431 354//431 385//431 
f 355//432 386//432 356//432 325//432 
f 335//438 365//438 389//438 361//438 
f 328//439 361//439 390//439 391//439 
f 359//440 391//440 392//440 362//440 
f 393//441 363//441 332//441 362//441 
f 333//442 363//442 394//442 395//442 
f 396//445 397//445 365//445 357//445 
f 400//448 309//448 368//448 369//448 
f 401//449 339//449 366//449 402//449 
f 342//453 340//453 403//453 372//453 
f 373//455 405//455 406//455 374//455 
f 374//456 407//456 408//456 344//456 
f 410//460 377//460 376//460 411//460 
f 337//461 378//461 345//461 377//461 
f 381//464 348//464 380//464 414//464 
f 381//466 414//466 382//466 351//466 
f 384//471 417//471 385//471 354//471 
f 396//474 356//474 386//474 419//474 
f 397//479 420//479 389//479 365//479 
f 389//480 421//480 390//480 361//480 
f 393//483 362//483 392//483 423//483 
f 394//486 425//486 426//486 395//486 
f 396//489 428//489 425//489 397//489 
f 433//496 403//496 340//496 400//496 
f 373//499 435//499 436//499 405//499 
f 437//500 438//500 406//500 405//500 
f 337//506 377//506 410//506 429//506 
f 442//507 411//507 376//507 443//507 
f 410//508 411//508 444//508 445//508 
f 447//512 414//512 380//512 448//512 
f 447//514 449//514 382//514 414//514 
f 384//517 416//517 450//517 417//517 
f 417//518 451//518 386//518 385//518 
f 452//520 419//520 386//520 451//520 
f 453//521 428//521 396//521 419//521 
f 397//522 425//522 394//522 420//522 
f 454//523 421//523 389//523 420//523 
f 455//524 390//524 421//524 423//524 
f 393//527 423//527 421//527 454//527 
f 456//530 426//530 425//530 428//530 
f 427//531 395//531 426//531 457//531 
f 458//532 441//532 375//532 427//532 
f 459//541 403//541 433//541 460//541 
f 459//545 461//545 436//545 435//545 
f 437//546 405//546 436//546 462//546 
f 437//547 463//547 464//547 438//547 
f 465//548 466//548 406//548 438//548 
f 443//551 376//551 441//551 463//551 
f 410//552 445//552 402//552 429//552 
f 442//553 468//553 444//553 411//553 
f 442//554 443//554 462//554 469//554 
f 467//557 448//557 380//557 446//557 
f 471//558 472//558 447//558 448//558 
f 447//559 472//559 473//559 449//559 
f 382//560 449//560 450//560 416//560 
f 474//561 451//561 417//561 450//561 
f 452//562 475//562 453//562 419//562 
f 452//563 451//563 474//563 476//563 
f 453//564 477//564 456//564 428//564 
f 457//567 426//567 456//567 478//567 
f 458//569 480//569 463//569 441//569 
f 459//575 460//575 482//575 461//575 
f 461//577 469//577 462//577 436//577 
f 437//578 462//578 443//578 463//578 
f 480//579 483//579 464//579 463//579 
f 465//580 438//580 464//580 484//580 
f 465//581 485//581 471//581 466//581 
f 467//582 407//582 406//582 466//582 
f 486//585 468//585 442//585 482//585 
f 442//586 469//586 461//586 482//586 
f 471//587 448//587 467//587 466//587 
f 485//588 487//588 472//588 471//588 
f 487//589 488//589 473//589 472//589 
f 474//590 450//590 449//590 473//590 
f 452//591 476//591 489//591 475//591 
f 453//592 475//592 490//592 477//592 
f 474//593 473//593 488//593 476//593 
f 456//594 477//594 491//594 478//594 
f 458//595 457//595 478//595 492//595 
f 458//597 492//597 493//597 480//597 
f 486//600 482//600 460//600 468//600 
f 480//601 493//601 494//601 483//601 
f 495//602 484//602 464//602 483//602 
f 465//603 484//603 496//603 485//603 
f 485//604 496//604 497//604 487//604 
f 487//605 497//605 498//605 488//605 
f 489//606 476//606 488//606 498//606 
f 489//607 499//607 490//607 475//607 
f 500//608 491//608 477//608 490//608 
f 502//611 493//611 492//611 503//611 
f 502//612 504//612 494//612 493//612 
f 505//613 495//613 483//613 494//613 
f 506//614 496//614 484//614 495//614 
f 507//615 497//615 496//615 506//615 
f 489//617 498//617 507//617 499//617 
f 509//618 500//618 490//618 499//618 
f 510//619 511//619 491//619 500//619 
f 492//621 491//621 511//621 503//621 
f 512//622 502//622 503//622 513//622 
f 512//623 514//623 504//623 502//623 
f 515//624 505//624 494//624 504//624 
f 516//625 506//625 495//625 505//625 
f 517//627 507//627 506//627 516//627 
f 517//629 509//629 499//629 507//629 
f 518//630 510//630 500//630 509//630 
f 519//631 511//631 510//631 520//631 
f 513//632 503//632 511//632 521//632 
f 512//633 513//633 522//633 523//633 
f 512//634 523//634 524//634 514//634 
f 515//635 504//635 514//635 525//635 
f 516//636 505//636 515//636 526//636 
f 517//637 516//637 526//637 527//637 
f 517//638 527//638 518//638 509//638 
f 518//639 528//639 520//639 510//639 
f 519//640 529//640 521//640 511//640 
f 519//641 520//641 530//641 531//641 
f 532//642 513//642 521//642 533//642 
f 532//643 534//643 522//643 513//643 
f 535//644 523//644 522//644 536//644 
f 535//645 537//645 524//645 523//645 
f 524//646 538//646 525//646 514//646 
f 526//647 515//647 525//647 539//647 
f 527//648 526//648 539//648 540//648 
f 518//649 527//649 540//649 528//649 
f 519//651 531//651 542//651 529//651 
f 543//652 533//652 521//652 529//652 
f 530//654 537//654 535//654 531//654 
f 532//655 533//655 544//655 545//655 
f 532//656 545//656 546//656 534//656 
f 522//657 534//657 547//657 536//657 
f 542//658 531//658 535//658 536//658 
f 524//659 537//659 548//659 538//659 
f 540//662 539//662 538//662 548//662 
f 542//665 551//665 552//665 529//665 
f 543//666 553//666 544//666 533//666 
f 530//668 528//668 548//668 537//668 
f 555//669 545//669 544//669 556//669 
f 557//670 546//670 545//670 555//670 
f 546//671 558//671 547//671 534//671 
f 542//672 536//672 547//672 551//672 
f 559//676 552//676 551//676 558//676 
f 543//678 552//678 559//678 553//678 
f 544//679 553//679 560//679 556//679 
f 561//681 562//681 555//681 556//681 
f 557//682 563//682 558//682 546//682 
f 557//683 555//683 562//683 564//683 
f 563//687 566//687 559//687 558//687 
f 559//688 566//688 560//688 553//688 
f 567//689 561//689 556//689 560//689 
f 561//690 568//690 569//690 562//690 
f 557//691 564//691 570//691 563//691 
f 571//692 564//692 562//692 572//692 
f 573//693 574//693 566//693 563//693 
f 567//694 560//694 566//694 574//694 
f 567//695 575//695 568//695 561//695 
f 576//696 569//696 568//696 577//696 
f 571//698 579//698 570//698 564//698 
f 571//701 572//701 581//701 582//701 
f 573//702 583//702 584//702 574//702 
f 567//704 574//704 584//704 575//704 
f 572//706 569//706 576//706 586//706 
f 587//708 588//708 576//708 577//708 
f 589//710 579//710 571//710 582//710 
f 573//711 570//711 579//711 583//711 
f 591//714 582//714 581//714 592//714 
f 593//715 594//715 584//715 583//715 
f 575//716 584//716 594//716 595//716 
f 576//718 588//718 596//718 586//718 
f 587//721 598//721 599//721 588//721 
f 587//722 577//722 597//722 600//722 
f 589//723 601//723 593//723 579//723 
f 589//724 582//724 591//724 602//724 
f 592//727 581//727 604//727 605//727 
f 591//728 592//728 606//728 607//728 
f 608//729 609//729 594//729 593//729 
f 609//731 597//731 595//731 594//731 
f 586//734 596//734 604//734 581//734 
f 587//735 600//735 611//735 598//735 
f 612//736 599//736 598//736 613//736 
f 609//738 614//738 600//738 597//738 
f 615//739 601//739 589//739 602//739 
f 591//742 607//742 617//742 602//742 
f 618//743 619//743 605//743 604//743 
f 592//744 605//744 620//744 606//744 
f 608//746 622//746 614//746 609//746 
f 618//749 604//749 596//749 599//749 
f 611//750 600//750 614//750 622//750 
f 618//752 599//752 612//752 624//752 
f 613//753 598//753 625//753 626//753 
f 612//754 613//754 627//754 628//754 
f 615//755 629//755 608//755 601//755 
f 615//756 602//756 617//756 630//756 
f 631//758 632//758 617//758 607//758 
f 618//759 633//759 634//759 619//759 
f 635//760 620//760 605//760 619//760 
f 606//761 620//761 636//761 637//761 
f 629//764 638//764 622//764 608//764 
f 634//765 611//765 622//765 638//765 
f 612//768 628//768 639//768 624//768 
f 618//769 624//769 640//769 633//769 
f 626//770 625//770 633//770 640//770 
f 613//771 626//771 641//771 627//771 
f 642//772 643//772 628//772 627//772 
f 615//773 630//773 644//773 629//773 
f 630//774 617//774 632//774 645//774 
f 631//775 646//775 647//775 632//775 
f 634//776 633//776 625//776 611//776 
f 634//777 648//777 649//777 619//777 
f 635//778 650//778 636//778 620//778 
f 651//779 635//779 619//779 649//779 
f 652//780 637//780 636//780 653//780 
f 644//783 655//783 638//783 629//783 
f 655//784 650//784 634//784 638//784 
f 639//785 628//785 643//785 656//785 
f 639//786 641//786 640//786 624//786 
f 642//790 659//790 660//790 643//790 
f 645//793 632//793 647//793 662//793 
f 646//795 631//795 654//795 645//795 
f 646//796 663//796 664//796 647//796 
f 634//797 650//797 665//797 648//797 
f 648//798 666//798 667//798 649//798 
f 651//799 665//799 650//799 635//799 
f 655//800 668//800 636//800 650//800 
f 669//801 651//801 649//801 667//801 
f 670//802 637//802 652//802 671//802 
f 672//803 653//803 636//803 668//803 
f 644//806 675//806 654//806 655//806 
f 639//808 656//808 642//808 641//808 
f 656//811 677//811 659//811 642//811 
f 678//812 660//812 659//812 677//812 
f 662//815 647//815 664//815 679//815 
f 645//816 662//816 680//816 646//816 
f 646//818 680//818 681//818 663//818 
f 682//819 683//819 664//819 663//819 
f 684//820 666//820 648//820 665//820 
f 685//821 667//821 666//821 686//821 
f 684//822 665//822 651//822 669//822 
f 654//823 670//823 668//823 655//823 
f 671//826 652//826 688//826 689//826 
f 670//827 671//827 672//827 668//827 
f 672//828 689//828 690//828 653//828 
f 691//836 679//836 664//836 683//836 
f 681//837 680//837 662//837 679//837 
f 682//838 663//838 681//838 692//838 
f 684//840 694//840 686//840 666//840 
f 685//842 686//842 695//842 696//842 
f 684//843 669//843 685//843 694//843 
f 689//845 688//845 697//845 698//845 
f 691//852 692//852 681//852 679//852 
f 691//853 683//853 701//853 702//853 
f 703//856 695//856 686//856 694//856 
f 704//857 696//857 695//857 705//857 
f 703//858 694//858 685//858 696//858 
f 708//863 709//863 702//863 701//863 
f 703//867 710//867 705//867 695//867 
f 704//869 705//869 710//869 712//869 
f 1//4 2//4 6//4 
f 14//64 78//64 29//64 
f 15//71 32//71 36//71 
f 17//45 20//45 33//45 
f 36//112 89//112 62//112 67//112 37//112 
f 26//126 45//126 100//126 73//126 46//126 
f 31//103 53//103 77//103 
f 35//109 59//109 87//109 86//109 57//109 
f 39//117 61//117 65//117 93//117 64//117 
f 37//114 67//114 62//114 
f 23//121 62//121 112//121 66//121 67//121 
f 41//118 65//118 61//118 
f 81//153 109//153 105//153 
f 102//159 119//159 110//159 
f 84//168 110//168 132//168 117//168 111//168 
f 99//171 116//171 134//171 
f 103//173 118//173 120//173 
f 104//174 121//174 119//174 
f 108//180 123//180 125//180 
f 112//167 115//167 129//167 
f 122//195 125//195 123//195 141//195 139//195 
f 131//198 145//198 155//198 154//198 143//198 
f 167//217 168//217 176//217 
f 189//261 191//261 208//261 209//261 190//261 
f 196//259 225//259 197//259 
f 220//312 252//312 238//312 
f 228//326 268//326 245//326 
f 232//359 249//359 300//359 301//359 250//359 
f 235//367 254//367 280//367 336//367 281//367 
f 239//379 261//379 315//379 316//379 262//379 
f 262//405 316//405 315//405 337//405 280//405 
f 281//408 338//408 366//408 339//408 282//408 
f 275//436 302//436 360//436 359//436 303//436 
f 282//412 368//412 309//412 
f 286//421 314//421 346//421 
f 312//465 344//465 408//465 379//465 318//465 
f 321//470 383//470 416//470 384//470 322//470 
f 294//429 322//429 323//429 
f 298//435 360//435 327//435 
f 333//488 395//488 427//488 375//488 334//488 
f 309//451 400//451 340//451 
f 310//452 340//452 342//452 
f 356//476 396//476 357//476 
f 328//478 391//478 359//478 
f 336//535 429//535 402//535 430//535 366//535 
f 339//537 401//537 433//537 400//537 369//537 
f 343//498 372//498 373//498 
f 375//505 441//505 376//505 
f 348//509 381//509 350//509 
f 379//511 446//511 380//511 
f 382//516 416//516 383//516 
f 355//519 385//519 386//519 
f 390//566 455//566 423//566 392//566 391//566 
f 363//565 393//565 454//565 420//565 394//565 
f 366//538 430//538 402//538 
f 401//573 402//573 444//573 468//573 433//573 
f 372//576 403//576 459//576 435//576 373//576 
f 374//549 406//549 407//549 
f 379//583 408//583 407//583 467//583 446//583 
f 402//584 445//584 444//584 
f 427//596 457//596 458//596 
f 433//599 468//599 460//599 
f 478//620 491//620 492//620 
f 497//628 507//628 498//628 
f 520//664 528//664 530//664 
f 525//673 538//673 539//673 
f 528//675 540//675 548//675 
f 529//680 552//680 543//680 
f 547//686 558//686 551//686 
f 562//709 569//709 572//709 
f 563//712 570//712 573//712 
f 568//732 575//732 595//732 597//732 577//732 
f 572//726 586//726 581//726 
f 579//741 593//741 583//741 
f 588//748 599//748 596//748 
f 593//757 601//757 608//757 
f 606//782 637//782 654//782 631//782 607//782 
f 598//767 611//767 625//767 
f 626//809 640//809 641//809 
f 627//810 641//810 642//810 
f 630//832 645//832 654//832 675//832 644//832 
f 652//851 653//851 690//851 697//851 688//851 
f 637//831 670//831 654//831 
f 643//835 660//835 678//835 677//835 656//835 
f 667//844 685//844 669//844 
f 682//866 692//866 708//866 701//866 683//866 
f 671//848 689//848 672//848 
f 689//874 698//874 713//874 697//874 690//874 
f 697//872 713//872 698//872 
f 691//877 702//877 709//877 708//877 692//877 
f 696//880 704//880 712//880 710//880 703//880 
f 93//884 717//884 714//884 
f 93//886 714//886 717//886 
f 678//890 718//890 721//890 
f 678//892 721//892 718//892 
